<svg class="icon" viewBox="0 0 1024 1024" xmlns="http://www.w3.org/2000/svg" width="200" height="200"><defs><style/></defs><path d="M551.834 620.237l-7.68-3.994a32.666 32.666 0 00-30.72 0l-51.2 27.239a32.666 32.666 0 01-47.514-34.304l9.626-57.344a32.666 32.666 0 00-9.524-28.877l-41.779-40.448a32.666 32.666 0 0117.92-55.808l57.549-8.5a32.666 32.666 0 0024.576-17.92l25.6-52.223a32.666 32.666 0 0158.573 0l26.419 51.916a32.666 32.666 0 0024.678 17.818l57.55 8.192a32.666 32.666 0 0117.92 55.296l-41.473 40.96a32.666 32.666 0 00-9.728 21.3 237.875 237.875 0 01230.093-4.302 683.93 683.93 0 0015.258-148.275V274.74a43.725 43.725 0 00-17.818-33.894 60.006 60.006 0 00-37.274-12.595H819.2c-.717 0-9.523.512-23.245.512a564.736 564.736 0 01-109.26-10.24c-54.375-11.47-117.044-64.103-135.373-74.445a63.078 63.078 0 00-60.928 0c-2.253 1.331-67.994 61.44-132.199 74.547a572.826 572.826 0 01-110.08 10.24c-13.721 0-22.528 0-23.347-.512h-3.686a60.314 60.314 0 00-36.762 12.493 43.315 43.315 0 00-17.306 33.997v116.224c0 430.08 330.752 485.478 344.781 487.628a75.776 75.776 0 009.728.717 60.416 60.416 0 009.728-.717c1.741 0 8.295-1.33 18.432-3.788a237.773 237.773 0 012.765-254.67z" fill="#1082FF"/><path d="M551.834 620.237l43.93 22.937a32.666 32.666 0 0047.308-34.61l-10.24-57.242a32.666 32.666 0 010-7.68 239.104 239.104 0 00-80.998 76.595z" fill="#FFF"/><path d="M862.618 539.34a237.875 237.875 0 00-230.093 4.302 32.666 32.666 0 000 7.68l10.24 57.241a32.666 32.666 0 01-47.309 34.611l-43.93-22.937a237.773 237.773 0 00-2.764 254.669c62.156-14.746 257.74-82.125 313.856-335.565z" fill="#1082FF"/><path d="M862.618 539.34a237.875 237.875 0 00-230.093 4.302 32.666 32.666 0 000 7.68l10.24 57.241a32.666 32.666 0 01-47.309 34.611l-43.93-22.937a237.773 237.773 0 00-2.764 254.669c62.156-14.746 257.74-82.125 313.856-335.565z" fill="#459CFC"/></svg>